<svg xmlns="http://www.w3.org/2000/svg" fill="none" viewBox="0 0 180 180"><g clip-path="url(#a)"><path fill="#fef3c0" d="M0 59.76C0 10.548 10.548 0 59.76 0h60.48C169.452 0 180 10.548 180 59.76v60.48c0 49.212-10.548 59.76-59.76 59.76H59.76C10.548 180 0 169.452 0 120.24z"/><path fill="#fff" d="M120 40h20v20h-20z"/><path fill="#1b1b1f" d="M160 80h-60V20h60zm-40-20h20V40h-20zM140 100v20h-20v40h-20v-60zm20 60h-20v-40h20z"/><path fill="#fff" d="M40 120h20v20H40z"/><path fill="#1b1b1f" d="M80 160H20v-60h60zm-40-20h20v-20H40zM60 80H40V40H20V20h60v20H60z"/></g><defs><clipPath id="a"><path fill="#fff" d="M0 0h180v180H0z"/></clipPath></defs></svg>
